<svg xmlns="http://www.w3.org/2000/svg" width="32" height="32" viewBox="0 0 32 32.000001"><path style="line-height:normal;text-indent:0;text-align:start;text-decoration-line:none;text-decoration-style:solid;text-decoration-color:#000;text-transform:none;block-progression:tb;isolation:auto;mix-blend-mode:normal" d="M2.99 1.99a1 1 0 0 0-.697 1.717L14.586 16 2.293 28.293a1 1 0 1 0 1.414 1.414L16 17.414l12.293 12.293a1 1 0 1 0 1.414-1.414L17.414 16 29.707 3.707a1 1 0 0 0-.727-1.715 1 1 0 0 0-.687.301L16 14.586 3.707 2.293a1 1 0 0 0-.717-.303z" color="#000" font-weight="400" font-family="sans-serif" white-space="normal" overflow="visible" fill-rule="evenodd"/></svg>