<svg xmlns="http://www.w3.org/2000/svg" width="150.97" height="150.97" viewBox="0 0 150.97 150.97"><g fill="#1b1817"><path d="M75.485 1.864C33.801 1.864 0 35.658 0 77.35c0 33.35 21.629 61.645 51.621 71.626 3.773.699 5.158-1.637 5.158-3.631 0-1.799-.07-7.746-.103-14.054-21 4.567-25.431-8.906-25.431-8.906-3.434-8.724-8.381-11.045-8.381-11.045-6.849-4.685.516-4.589.516-4.589 7.58.533 11.571 7.78 11.571 7.78 6.733 11.539 17.659 8.203 21.966 6.274.68-4.877 2.634-8.209 4.793-10.094-16.766-1.907-34.391-8.381-34.391-37.305 0-8.24 2.948-14.975 7.777-20.261-.784-1.901-3.367-9.579.733-19.976 0 0 6.338-2.028 20.762 7.739 6.021-1.673 12.479-2.512 18.894-2.542 6.415.03 12.877.869 18.91 2.542 14.408-9.767 20.738-7.74 20.738-7.74 4.108 10.398 1.524 18.076.74 19.977 4.84 5.286 7.768 12.021 7.768 20.261 0 28.994-17.659 35.377-34.467 37.245 2.707 2.343 5.12 6.937 5.12 13.979 0 10.1-.087 18.229-.087 20.715 0 2.01 1.358 4.363 5.184 3.623 29.978-9.993 51.579-38.278 51.579-71.618 0-41.691-33.796-75.485-75.485-75.485" fill-rule="evenodd"/><path d="M28.59 110.243c-.166.376-.756.489-1.293.231-.549-.247-.855-.758-.678-1.135.163-.385.753-.492 1.3-.235.548.247.86.763.671 1.139M31.648 113.654c-.36.333-1.065.178-1.54-.35-.496-.525-.587-1.23-.222-1.568.371-.334 1.054-.177 1.547.349.495.532.592 1.23.215 1.569M34.624 118c-.462.323-1.22.022-1.687-.65-.463-.672-.463-1.477.011-1.8.468-.322 1.214-.03 1.688.634.461.683.461 1.488-.012 1.817M38.702 122.201c-.414.456-1.295.334-1.94-.29-.66-.607-.844-1.471-.43-1.927.42-.458 1.306-.33 1.956.288.655.608.854 1.478.414 1.929M44.327 124.64c-.184.591-1.032.859-1.887.607-.853-.258-1.412-.95-1.24-1.547.178-.595 1.03-.875 1.892-.606.852.257 1.412.945 1.235 1.546M50.505 125.092c.02.622-.704 1.138-1.602 1.15-.902.02-1.633-.484-1.643-1.097 0-.628.71-1.138 1.61-1.155.898-.017 1.635.484 1.635 1.102M56.253 124.114c.107.606-.516 1.23-1.408 1.396-.876.161-1.687-.215-1.798-.816-.11-.623.525-1.246 1.4-1.408.893-.155 1.692.21 1.806.828"/></g></svg>