<svg xmlns="http://www.w3.org/2000/svg" width="40.724" height="40.724" viewBox="0 0 40.723997 40.723997"><path d="M20.36.503C9.116.503 0 9.619 0 20.865c0 8.997 5.834 16.628 13.925 19.321 1.019.187 1.39-.442 1.39-.982 0-.482-.017-1.764-.027-3.462-5.664 1.23-6.86-2.73-6.86-2.73-.925-2.352-2.26-2.978-2.26-2.978-1.85-1.264.14-1.239.14-1.239 2.043.145 3.118 2.099 3.118 2.099 1.817 3.111 4.767 2.213 5.927 1.693.185-1.317.71-2.214 1.292-2.723C12.124 29.35 7.37 27.603 7.37 19.8c0-2.222.794-4.04 2.096-5.463-.21-.515-.908-2.585.2-5.39 0 0 1.71-.547 5.6 2.088a19.504 19.504 0 0 1 5.097-.685 19.64 19.64 0 0 1 5.097.685c3.888-2.635 5.594-2.087 5.594-2.087 1.111 2.804.412 4.874.202 5.389 1.305 1.423 2.094 3.24 2.094 5.463 0 7.823-4.761 9.544-9.297 10.048.73.629 1.382 1.871 1.382 3.771 0 2.721-.025 4.918-.025 5.585 0 .545.366 1.179 1.4.98 8.085-2.699 13.914-10.325 13.914-19.319C40.724 9.62 31.606.503 20.36.503" fill="#1b1817" fill-rule="evenodd"/></svg>