<svg xmlns="http://www.w3.org/2000/svg" width="32" height="32" viewBox="0 0 32 32.000001"><path style="line-height:normal;text-indent:0;text-align:start;text-decoration-line:none;text-decoration-style:solid;text-decoration-color:#000;text-transform:none;block-progression:tb;isolation:auto;mix-blend-mode:normal" d="M15.3 6.983a1 1 0 0 0-.694 1.756l8.15 7.253-8.15 7.254a1 1 0 1 0 1.328 1.493l8.99-8a1 1 0 0 0 0-1.495l-8.99-8a1 1 0 0 0-.633-.261zm-7.5 0a1 1 0 0 0-.694 1.756l8.15 7.253-8.15 7.254a1 1 0 1 0 1.328 1.493l8.99-8a1 1 0 0 0 0-1.495l-8.99-8a1 1 0 0 0-.633-.261z" color="#000" font-weight="400" font-family="sans-serif" white-space="normal" overflow="visible" fill-rule="evenodd"/></svg>