<svg xmlns="http://www.w3.org/2000/svg" width="36.004" height="36.004" viewBox="0 0 36.004002 36.004002"><path d="M33.634 19.814c-.579-1.582-1.687-3.05-3.268-4.308a2.69 2.69 0 0 1 1.545-.487 2.712 2.712 0 0 1 2.708 2.709c0 .84-.384 1.59-.985 2.086zM18.002 31.766c-8.112 0-14.71-4.2-14.71-9.361 0-5.161 6.598-9.36 14.71-9.36 8.111 0 14.71 4.199 14.71 9.36 0 5.162-6.599 9.36-14.71 9.36zM1.384 17.728a2.712 2.712 0 0 1 2.71-2.709c.573 0 1.105.18 1.544.486-1.581 1.259-2.69 2.727-3.268 4.31a2.702 2.702 0 0 1-.986-2.087zm28.82-13.375c1.098 0 1.99.892 1.99 1.988a1.991 1.991 0 0 1-1.99 1.989 1.99 1.99 0 0 1-1.987-1.989 1.99 1.99 0 0 1 1.988-1.988zm5.8 13.375a4.098 4.098 0 0 0-4.093-4.093 4.072 4.072 0 0 0-2.715 1.035c-2.777-1.789-6.367-2.835-10.211-2.988l2.11-6.67 5.739 1.35a3.376 3.376 0 0 0 3.37 3.353A3.378 3.378 0 0 0 33.58 6.34a3.378 3.378 0 0 0-3.374-3.373c-1.385 0-2.577.84-3.096 2.037l-6.322-1.488a.693.693 0 0 0-.819.465l-2.43 7.686c-4.04.075-7.83 1.132-10.73 3.002a4.073 4.073 0 0 0-2.715-1.035A4.097 4.097 0 0 0 0 17.728c0 1.492.803 2.8 1.999 3.514-.06.384-.093.771-.093 1.163 0 2.927 1.714 5.657 4.826 7.688.99.646 2.087 1.195 3.263 1.644 5.507 1.731 10.507 1.731 16.014 0a17.186 17.186 0 0 0 3.263-1.644c3.111-2.03 4.826-4.761 4.826-7.688 0-.392-.032-.78-.093-1.163a4.092 4.092 0 0 0 1.999-3.514m-5.8-8.706a2.68 2.68 0 1 0 .003-5.361 2.68 2.68 0 0 0-.002 5.361m-12.203 3.33c-4.458 0-8.473 1.237-11.285 3.212a3.402 3.402 0 1 0-3.938 5.3 6.7 6.7 0 0 0-.18 1.54c0 3.85 3.316 7.194 8.184 8.883 7.219 1.87 7.219 1.873 14.438 0 4.868-1.69 8.183-5.034 8.183-8.883a6.7 6.7 0 0 0-.177-1.54 3.402 3.402 0 0 0-1.316-6.54c-1.057.002-2 .484-2.624 1.24-2.813-1.975-6.827-3.213-11.285-3.213zm5.426 5.597c.688 0 1.31.28 1.762.732.451.452.73 1.075.73 1.762s-.279 1.31-.73 1.762a2.489 2.489 0 0 1-3.525 0 2.484 2.484 0 0 1-.731-1.762c0-.687.279-1.31.73-1.762a2.49 2.49 0 0 1 1.764-.732zm-10.854.002c.688 0 1.31.279 1.762.73.451.452.73 1.075.73 1.762s-.279 1.31-.73 1.762a2.486 2.486 0 0 1-3.523 0 2.485 2.485 0 0 1-.73-1.762c0-.687.278-1.31.73-1.762a2.485 2.485 0 0 1 1.761-.73zm10.262 8.592a.692.692 0 0 1 .977.98c-.608.607-1.388 1.057-2.354 1.356-.966.299-2.115.447-3.457.447-1.342 0-2.492-.148-3.457-.447-.966-.3-1.747-.75-2.354-1.356a.691.691 0 1 1 .979-.978c.47.47 1.103.819 1.906 1.05.803.232 1.777.346 2.926.346 1.149 0 2.12-.116 2.924-.348.803-.231 1.44-.58 1.91-1.05z" fill="#100f0d"/></svg>