<svg xmlns="http://www.w3.org/2000/svg" width="92.985" height="92.985" viewBox="0 0 92.985 92.985"><linearGradient id="a" gradientUnits="userSpaceOnUse" x1="46.493" x2="46.493" y2="53.006" gradientTransform="translate(0 26.301)"><stop offset="0" stop-color="#f79810"/><stop offset="1" stop-color="#f8310e"/></linearGradient><path d="M1.053 50.453c-.194 0-.348.15-.373.364L0 55.982l.68 5.076c.025.214.179.363.373.363.188 0 .341-.148.371-.361v-.001.001l.806-5.078-.806-5.166c-.029-.213-.184-.363-.371-.363zm3.824-2.822c-.032-.222-.191-.375-.387-.375-.197 0-.36.158-.387.375l-.914 8.351.914 8.166c.026.219.189.377.387.377.195 0 .354-.154.386-.375l1.04-8.168zm14.404-7.703a.717.717 0 0 0-.703.697l-.728 15.364.728 9.929a.717.717 0 0 0 .703.694c.373 0 .682-.307.704-.696v.003l.823-9.93-.823-15.364c-.022-.39-.331-.697-.704-.697zm-7.455 5.34c-.288 0-.523.23-.546.537l-.82 10.18.82 9.849a.558.558 0 0 0 .546.535c.285 0 .52-.23.545-.535l.932-9.849-.932-10.182c-.025-.305-.26-.535-.545-.535zm15.031 21.343a.873.873 0 0 0 .862-.855l.714-9.762-.713-20.455a.873.873 0 0 0-.862-.855.87.87 0 0 0-.863.856l-.633 20.453.633 9.766a.868.868 0 0 0 .862.852zm15.51.046c.64 0 1.168-.527 1.18-1.175v.007-.007L44.045 56l-.498-23.624a1.194 1.194 0 0 0-1.18-1.175c-.641 0-1.17.527-1.18 1.176l-.445 23.615.445 9.496c.01.642.54 1.169 1.18 1.169zm-7.814-.037c.557 0 1.006-.447 1.021-1.017v.007l.606-9.614-.607-20.603a1.027 1.027 0 0 0-1.021-1.016c-.561 0-1.01.446-1.022 1.016l-.539 20.604.54 9.612a1.023 1.023 0 0 0 1.022 1.011zm-19.014-.09c.331 0 .599-.265.624-.614l.878-9.931-.878-9.447c-.024-.349-.292-.612-.624-.612-.336 0-.604.265-.625.616l-.773 9.443.773 9.93c.022.35.289.615.625.615zm-7.396-.544c.242 0 .438-.191.466-.455l.986-9.548-.985-9.908c-.029-.265-.225-.456-.467-.456-.245 0-.441.192-.466.456l-.868 9.908.868 9.546c.024.265.22.457.466.457zM38.445 35.05c-.605 0-1.09.481-1.102 1.097l-.492 19.851.492 9.552a1.1 1.1 0 0 0 2.202-.007v.008l.552-9.552-.552-19.854a1.103 1.103 0 0 0-1.1-1.095zm-15.39 31.581a.798.798 0 0 0 .783-.776l.768-9.863-.768-18.878c-.021-.436-.365-.776-.783-.776a.795.795 0 0 0-.784.776l-.68 18.878.681 9.867a.792.792 0 0 0 .783.772zm8.576-.931v-.005l.66-9.7-.66-21.144a.95.95 0 0 0-.941-.937.947.947 0 0 0-.942.937l-.586 21.143.587 9.705c.014.52.428.931.941.931a.949.949 0 0 0 .941-.934zm49.918-21.893c-1.567 0-3.062.317-4.424.888-.91-10.308-9.554-18.394-20.098-18.394-2.58 0-5.095.508-7.316 1.367-.863.334-1.093.678-1.101 1.345v36.3c.009.7.552 1.283 1.235 1.352.029.003 31.499.019 31.703.019 6.316 0 11.437-5.121 11.437-11.438s-5.12-11.439-11.436-11.439zM46.272 28.981c-.687 0-1.251.564-1.261 1.257l-.516 25.765.517 9.351a1.268 1.268 0 0 0 1.26 1.246c.685 0 1.249-.563 1.259-1.256v.011l.561-9.352-.561-25.767a1.272 1.272 0 0 0-1.259-1.255z" fill="url(#a)"/></svg>