<svg xmlns="http://www.w3.org/2000/svg" width="341.737" height="341.737" viewBox="0 0 341.73749 341.73749"><path d="M341.737 64.884c-12.573 5.576-26.086 9.345-40.268 11.04 14.476-8.678 25.592-22.418 30.827-38.79a140.382 140.382 0 0 1-44.521 17.015c-12.79-13.627-31.011-22.142-51.176-22.142-38.722 0-70.114 31.392-70.114 70.11 0 5.495.621 10.847 1.816 15.978-58.27-2.924-109.93-30.836-144.511-73.254-6.035 10.355-9.492 22.398-9.492 35.248 0 24.323 12.378 45.783 31.19 58.356a69.828 69.828 0 0 1-31.756-8.769c-.005.293-.006.585-.006.881 0 33.97 24.167 62.308 56.24 68.748a70.222 70.222 0 0 1-18.47 2.459c-4.519 0-8.91-.439-13.191-1.258 8.922 27.855 34.814 48.125 65.494 48.691-23.995 18.804-54.226 30.013-87.074 30.013-5.66 0-11.24-.331-16.725-.979 31.028 19.893 67.88 31.499 107.475 31.499 128.96 0 199.48-106.834 199.48-199.483 0-3.04-.068-6.063-.203-9.07 13.698-9.885 25.585-22.233 34.985-36.293" fill="#6aa9e0"/></svg>