<svg xmlns="http://www.w3.org/2000/svg" width="1276.813" height="1276.813" viewBox="0 0 1276.8125 1276.8125"><path d="M809.084 647.303L506.53 445.272l345 180-42.447 22.031" fill="#e3e2e0"/><path d="M506.59 804.022l-.059-358.75 345 180-344.941 178.75zm757.472-420.899s-12.474-87.986-50.76-126.732c-48.552-50.854-102.974-51.107-127.932-54.084-178.671-12.915-446.688-12.915-446.688-12.915h-.555s-268.01 0-446.687 12.915c-24.959 2.977-79.362 3.23-127.932 54.084C25.227 295.137 12.77 383.123 12.77 383.123S0 486.448 0 589.772v96.866c0 103.323 12.769 206.646 12.769 206.646s12.458 87.988 50.74 126.734c48.57 50.855 112.37 49.246 140.786 54.576 102.146 9.795 434.111 12.827 434.111 12.827s268.293-.404 446.964-13.32c24.957-2.977 79.38-3.228 127.933-54.083 38.284-38.746 50.76-126.734 50.76-126.734s12.75-103.323 12.75-206.646v-96.866c0-103.324-12.75-206.649-12.75-206.649" fill="#fff"/></svg>